<?xml version="1.0" encoding="UTF-8" standalone="no"?>
<svg
   version="1.0"
   width="453.72766pt"
   height="216.53169pt"
   viewBox="0 0 453.72766 216.5317"
   preserveAspectRatio="xMidYMid"
   id="svg1"
   sodipodi:docname="bone2.svg"
   inkscape:version="1.4.2 (f4327f4, 2025-05-13)"
   xmlns:inkscape="http://www.inkscape.org/namespaces/inkscape"
   xmlns:sodipodi="http://sodipodi.sourceforge.net/DTD/sodipodi-0.dtd"
   xmlns:xlink="http://www.w3.org/1999/xlink"
   xmlns="http://www.w3.org/2000/svg"
   xmlns:svg="http://www.w3.org/2000/svg">
  <defs
     id="defs1">
    <linearGradient
       id="swatch1"
       inkscape:swatch="solid">
      <stop
         style="stop-color:#3b2b24;stop-opacity:1;"
         offset="0"
         id="stop1" />
    </linearGradient>
    <linearGradient
       inkscape:collect="always"
       xlink:href="#swatch1"
       id="linearGradient1"
       x1="905.59137"
       y1="2477.97"
       x2="4989.8115"
       y2="2477.97"
       gradientUnits="userSpaceOnUse"
       gradientTransform="matrix(0.68854447,0.72519414,-0.76069966,0.7222556,2663.3647,-1704.9012)" />
  </defs>
  <sodipodi:namedview
     id="namedview1"
     pagecolor="#ffffff"
     bordercolor="#000000"
     borderopacity="0.25"
     inkscape:showpageshadow="2"
     inkscape:pageopacity="0.0"
     inkscape:pagecheckerboard="0"
     inkscape:deskcolor="#d1d1d1"
     inkscape:document-units="pt"
     inkscape:antialias-rendering="false"
     inkscape:zoom="1"
     inkscape:cx="222"
     inkscape:cy="239.5"
     inkscape:window-width="1920"
     inkscape:window-height="1009"
     inkscape:window-x="-8"
     inkscape:window-y="-8"
     inkscape:window-maximized="1"
     inkscape:current-layer="g1" />
  <g
     transform="matrix(0.1,0,0,-0.1,-53.877225,330.6506)"
     fill="#000000"
     stroke="none"
     id="g1">
    <path
       d="M 593.65808,2961.9689 C 490.96817,2739.5547 535.03985,2466.0483 703.54816,2283.9931 l 57.48585,-62.8538 -47.76528,-59.4482 c -94.22541,-115.9987 -137.33356,-254.3316 -127.25879,-412.823 17.54624,-293.8265 251.29167,-548.8534 546.56396,-598.9201 340.5601,-57.2136 656.6891,172.1474 694.4762,504.4471 l 6.4971,58.6414 1002.1879,1.3085 1001.4285,2.0302 5.2465,-32.5606 c 21.0191,-145.4399 121.852,-307.3666 253.5318,-404.8127 205.5065,-153.7522 478.9741,-173.464 698.1624,-49.2499 84.5741,47.9415 182.0583,156.7093 227.1869,254.5136 107.2931,231.8329 53.155,532.8234 -129.4851,707.6123 l -39.5566,37.5574 36.493,38.4352 c 172.7528,183.4709 190.2114,501.9774 39.3944,736.1827 -45.5635,70.8391 -154.4157,175.5694 -226.7607,216.6791 -144.001,82.945 -320.5862,107.1962 -476.5335,66.3471 -125.8731,-33.5503 -168.7399,-60.4179 -272.0216,-169.1969 -106.0363,-111.6799 -140.3975,-178.3387 -159.3018,-307.9371 l -11.9728,-79.6423 -998.5291,-2.0243 -997.0797,-2.0221 -18.8615,73.066 c -29.2488,121.5387 -73.6522,198.1716 -166.1292,294.2487 -60.312,61.4003 -96.609,91.7263 -141.3852,117.6924 -191.0591,111.0775 -426.1975,117.8386 -611.83049,18.3022 -102.36423,-54.4927 -205.64603,-163.2718 -254.07285,-267.5969 z m 284.66598,162.7077 c 79.46512,48.6558 156.02544,68.3537 258.23344,67.8368 152.2427,-1.1387 266.0713,-45.7833 374.0906,-148.3436 95.0877,-90.2822 143.9435,-183.553 163.4807,-313.7969 6.3679,-40.5198 19.2218,-80.303 28.3501,-88.9699 24.3425,-23.112 2148.2453,-19.5292 2170.2786,3.677 7.5739,7.9776 15.3707,40.5641 17.4427,71.6913 5.0279,131.7418 50.1954,243.2982 134.8863,332.497 229.9737,242.2149 639.2652,187.3121 822.9295,-109.7962 49.7283,-81.6888 71.4877,-154.7479 77.5156,-261.1342 7.2153,-144.7447 -44.4766,-270.7906 -156.9982,-383.2073 -27.613,-27.5607 -50.047,-57.2818 -49.6143,-65.9663 0.3615,-7.2379 37.3078,-50.5907 80.8115,-94.6537 144.1333,-143.7438 195.6586,-290.5701 165.6925,-474.4754 -17.7038,-110.0533 -58.8782,-185.412 -147.3726,-270.9998 -101.7213,-96.4709 -197.6342,-135.0261 -337.4497,-136.0336 -142.7857,0.4336 -237.3415,36.432 -350.1808,133.9157 -115.8817,100.3733 -171.5843,200.1443 -191.7712,343.4161 -3.9409,35.4572 -14.3686,70.1786 -21.2146,76.679 -15.9746,15.1671 -2160.8557,10.8184 -2175.3153,-4.411 -6.1969,-6.5267 -13.1606,-41.2829 -14.3276,-76.0275 -5.9714,-141.8772 -57.0085,-251.9978 -161.6279,-348.4748 -138.5028,-129.1168 -314.3394,-163.4922 -507.3656,-100.1887 -85.42663,27.3305 -96.62044,33.8219 -172.40179,100.2576 -122.7286,106.8738 -178.57479,209.5394 -193.10963,355.7179 -15.65517,154.1372 22.81064,269.2989 133.30541,393.2922 50.80828,56.5589 71.7924,86.2774 68.38894,96.4034 -1.88221,8.6819 -32.59918,43.3623 -68.34924,77.3105 -120.1907,114.1165 -170.38453,219.6893 -178.93785,376.7358 -8.04844,146.9147 30.70586,256.2867 128.40689,360.7121 28.15814,31.1802 74.79571,69.6362 102.22623,86.3389 z"
       id="path1"
       style="fill:url(#linearGradient1);fill-opacity:1;stroke-width:1.02417" />
  </g>
</svg>
