<?xml version="1.0" encoding="UTF-8" standalone="no"?>
<!-- Created with Inkscape (http://www.inkscape.org/) -->

<svg
   width="180.62222mm"
   height="180.62222mm"
   viewBox="0 0 180.62222 180.62222"
   version="1.1"
   id="svg1"
   xml:space="preserve"
   inkscape:version="1.4.2 (f4327f4, 2025-05-13)"
   sodipodi:docname="cat.svg"
   xmlns:inkscape="http://www.inkscape.org/namespaces/inkscape"
   xmlns:sodipodi="http://sodipodi.sourceforge.net/DTD/sodipodi-0.dtd"
   xmlns="http://www.w3.org/2000/svg"
   xmlns:svg="http://www.w3.org/2000/svg"><sodipodi:namedview
     id="namedview1"
     pagecolor="#ffffff"
     bordercolor="#000000"
     borderopacity="0.25"
     inkscape:showpageshadow="2"
     inkscape:pageopacity="0.0"
     inkscape:pagecheckerboard="0"
     inkscape:deskcolor="#d1d1d1"
     inkscape:document-units="mm"
     showgrid="false"
     inkscape:zoom="1.0167041"
     inkscape:cx="1008.1596"
     inkscape:cy="312.28359"
     inkscape:window-width="1920"
     inkscape:window-height="1009"
     inkscape:window-x="-8"
     inkscape:window-y="-8"
     inkscape:window-maximized="1"
     inkscape:current-layer="svg1"><inkscape:page
       x="0"
       y="0"
       width="180.62222"
       height="180.62222"
       id="page2"
       margin="0"
       bleed="0" /></sodipodi:namedview><defs
     id="defs1" /><g
     transform="matrix(0.03527778,0,0,-0.03527778,7.36796e-7,180.62223)"
     fill="#000000"
     stroke="none"
     id="g1"
     style="fill:#3b2b24;fill-opacity:1"><path
       d="m 3581,4544 c -37,-46 -44,-98 -38,-269 3,-88 11,-187 17,-220 l 12,-60 -34,-25 c -66,-49 -211,-197 -270,-274 -67,-90 -127,-202 -159,-301 -30,-94 -64,-124 -313,-285 C 2534,2942 2404,2842 2264,2698 1850,2274 1618,1695 1564,951 l -7,-93 -78,4 c -291,17 -490,333 -439,698 29,214 100,339 379,666 198,233 279,401 288,599 8,165 -32,291 -132,423 -130,172 -323,266 -550,266 -122,0 -207,-20 -320,-76 -99,-49 -218,-148 -236,-196 -39,-102 34,-212 141,-212 48,0 66,9 151,78 29,24 76,56 103,70 46,24 62,27 156,27 95,0 110,-3 162,-28 158,-78 246,-229 218,-376 -21,-113 -90,-222 -285,-456 -293,-352 -392,-582 -388,-905 2,-193 48,-361 139,-507 114,-183 280,-309 483,-366 75,-21 87,-22 1082,-25 969,-3 1007,-2 1029,16 23,18 23,19 6,69 -18,53 -51,90 -103,117 -18,9 -33,20 -33,24 0,4 13,41 29,82 74,191 81,425 15,552 -15,30 -15,31 17,64 l 33,34 41,-87 c 23,-49 66,-119 95,-158 68,-88 92,-154 130,-358 40,-216 62,-285 100,-322 l 31,-30 h 204 c 145,0 207,3 216,12 9,9 9,26 -1,74 -16,73 -51,119 -119,154 -42,21 -49,29 -69,87 -55,158 -110,464 -119,658 -9,204 -4,227 79,372 118,203 155,294 189,457 37,175 51,353 56,733 l 6,367 27,10 c 15,5 89,35 164,67 154,64 171,81 160,152 -5,30 0,50 20,90 40,79 32,144 -24,190 -8,7 -78,43 -155,81 -87,44 -163,89 -200,121 -67,57 -162,108 -251,135 -55,16 -63,22 -94,72 -95,151 -271,240 -329,167 z m 131,-45 c 58,-30 136,-105 169,-165 28,-49 32,-52 111,-78 98,-32 163,-68 249,-137 37,-30 119,-78 194,-114 126,-61 174,-93 176,-118 3,-30 -4,-55 -28,-101 -21,-41 -24,-58 -19,-97 6,-47 6,-49 -26,-65 -18,-9 -98,-43 -178,-75 l -145,-59 -2,-297 c -2,-316 -14,-544 -39,-708 -32,-218 -64,-306 -189,-530 -46,-82 -88,-170 -94,-195 -35,-152 25,-631 112,-889 l 32,-96 65,-35 c 60,-32 66,-39 82,-85 l 16,-50 -180,-3 c -206,-3 -206,-3 -232,77 -8,25 -29,120 -46,212 -44,244 -58,282 -150,404 -40,54 -79,129 -124,237 -10,25 -21,38 -33,37 -10,0 -44,-30 -76,-65 -54,-60 -57,-65 -43,-86 8,-13 24,-54 35,-92 41,-135 22,-331 -49,-497 -16,-39 -30,-77 -30,-83 0,-7 27,-25 61,-41 56,-27 89,-62 89,-95 0,-7 -309,-10 -1001,-10 -871,0 -1009,2 -1061,15 -255,67 -454,266 -541,542 -73,231 -53,515 54,743 66,140 138,243 324,465 118,141 186,241 223,327 23,54 26,78 27,163 0,93 -2,105 -32,166 -76,154 -242,247 -423,237 -92,-5 -173,-42 -274,-123 -56,-45 -76,-55 -106,-55 -66,0 -115,62 -102,129 6,32 71,94 161,153 320,210 761,95 931,-242 99,-197 83,-401 -49,-632 -39,-68 -78,-119 -287,-374 -211,-259 -276,-412 -276,-654 0,-212 50,-362 159,-480 97,-105 212,-159 370,-174 81,-7 93,4 93,87 0,177 60,543 125,772 53,186 99,303 183,469 195,386 460,659 926,951 88,55 187,126 222,158 54,50 66,68 85,125 30,92 99,224 158,302 50,66 189,206 269,270 l 44,35 -17,110 c -20,135 -24,334 -7,393 11,37 16,42 43,42 16,0 48,-9 71,-21 z"
       id="path1"
       style="fill:#3b2b24;fill-opacity:1;stroke:#3b2b24;stroke-width:48.189;stroke-dasharray:none;stroke-opacity:1" /></g></svg>
