<?xml version="1.0" encoding="UTF-8" standalone="no"?>
<!-- Created with Inkscape (http://www.inkscape.org/) -->

<svg
   width="165.60971mm"
   height="165.80151mm"
   viewBox="0 0 165.60971 165.8015"
   version="1.1"
   id="svg1"
   xml:space="preserve"
   inkscape:version="1.4.2 (f4327f4, 2025-05-13)"
   sodipodi:docname="dog.svg"
   xmlns:inkscape="http://www.inkscape.org/namespaces/inkscape"
   xmlns:sodipodi="http://sodipodi.sourceforge.net/DTD/sodipodi-0.dtd"
   xmlns="http://www.w3.org/2000/svg"
   xmlns:svg="http://www.w3.org/2000/svg"><sodipodi:namedview
     id="namedview1"
     pagecolor="#ffffff"
     bordercolor="#000000"
     borderopacity="0.25"
     inkscape:showpageshadow="2"
     inkscape:pageopacity="0.0"
     inkscape:pagecheckerboard="0"
     inkscape:deskcolor="#d1d1d1"
     inkscape:document-units="mm"
     showgrid="false"
     inkscape:zoom="1.0167041"
     inkscape:cx="444.57381"
     inkscape:cy="382.11709"
     inkscape:window-width="1920"
     inkscape:window-height="1009"
     inkscape:window-x="-8"
     inkscape:window-y="-8"
     inkscape:window-maximized="1"
     inkscape:current-layer="g1"><inkscape:page
       x="-1.040602e-05"
       y="1.6918948e-13"
       width="165.60971"
       height="165.8015"
       id="page5"
       margin="0"
       bleed="0" /></sodipodi:namedview><defs
     id="defs1" /><g
     transform="matrix(0.03527778,0,0,-0.03527778,-359.31926,157.35353)"
     fill="#000000"
     stroke="none"
     id="g1"
     style="stroke:#3b2b24;stroke-width:48.189;stroke-dasharray:none;stroke-opacity:1"><path
       d="m 13509.156,3997.3934 c -144,-38 -257,-105 -359,-214 -79,-85 -145,-218 -202,-411 -85,-286 -114,-331 -383,-600 -111,-111 -274,-267 -362,-347 -283,-256 -417,-421 -553,-678 -140,-265 -247,-657 -269,-982.00004 l -6,-100 -31,6 c -67,13 -194,86 -253,145 -109,109 -156,233.00004 -155,411.00004 1,169 54,327 168,500 63,97 219,257 328,340 47,36 86,71 86,78 0,42 -54,82 -110,82 -76,0 -266,-99 -403,-210 -267,-216 -412,-568 -394,-955 8,-157.00004 41,-287.00004 104,-407.00004 114,-217 295,-324 582,-345 81,-6 86,-8 122,-44 22,-22 51,-40 71,-44 18,-3 323,-4 678,-3 l 645,3 18,38 c 17,33 17,44 7,87 -15,62 -40,83 -131,110 -38,12 -69,26 -69,33 0,7 11,50 24,98 13,47 27,113 31,146 l 7,62 51,27 c 53,27 125,81 164,122 l 22,24 5,-34 c 2,-18 9,-71 15,-119 12,-95 68,-330 108,-458 31,-96 63,-135 120,-144 56,-10 272,-8 316,2 58,14 87,46 87,95 0,81 -52,143 -128,153 l -40,5 -12,66 c -14,81 -14,379 0,486.00004 40,311 86,457 198,631 88,137 128,233 156,372 20,102 23,197 13,483 -13,345 6,456 87,528 49,43 84,56 239,92 156,36 199,59 273,148 67,82 106,158 111,220 8,91 -33,126 -162,142 -101,13 -189,35 -221,55 -12,8 -39,44 -59,81 -117,209 -299,285 -534,224 z m 75,-52 c -100,-139 -113,-201 -92,-459 10,-117 5,-150 -24,-179 -71,-71 -242,55 -339,249 -30,58 -31,66 -20,95 21,49 176,198 244,233 58,30 164,68 215,76 14,2 27,5 29,6 2,0 -4,-9 -13,-21 z m 247,-15 c 71,-38 126,-98 171,-183 56,-106 91,-124 295,-155 65,-9 111,-21 123,-32 40,-36 14,-128 -67,-233 -76,-99 -103,-116 -234,-145 -179,-41 -234,-61 -286,-107 -106,-94 -118,-181 -105,-773 4,-192 2,-218 -18,-297 -31,-123 -63,-197 -137,-313 -112,-176 -150,-281 -196,-540 -37,-214.00004 -37,-635.00004 2,-706.00004 5,-11 31,-22 64,-29 38,-8 61,-19 75,-37 25,-32 27,-98 4,-107 -9,-3 -93,-6 -189,-6 -133,0 -175,3 -184,14 -19,22 -50,122 -96,307 -48,195 -71,355 -61,430.00004 11,79 -10,74 -111,-28.00004 -63,-64 -108,-100 -159,-126 l -71,-37 -6,-72 c -3,-40 -18,-115 -33,-167 -37,-127 -33,-138 68,-172 42,-14 84,-31 92,-38 18,-15 30,-64 21,-91 -6,-20 -13,-20 -653,-20 -710,0 -674,-3 -707,59 -14,28 -16,28 -122,34 -59,3 -138,13 -175,21 -225,50 -377,212 -450,480 -20,71 -23,104 -22,271.00004 1,179 2,197 32,307 50,193 134,341 267,474 93,93 203,170 321,225 83,40 130,47 165,28 18,-9 14,-15 -48,-62 -229,-173 -394,-391 -474,-627 -28,-82 -33,-112 -37,-220 -5,-145 9,-222 60,-327.00004 42,-87 158,-206 244,-251 71,-37 190,-76 209,-68 9,3 15,35 20,93 43,572.00004 218,1038.00004 521,1393.00004 71,83 215,228 324,325 147,131 479,459 534,527 77,96 124,189 171,343 44,146 87,265 96,265 3,0 11,-12 18,-27 45,-99 166,-232 245,-269 69,-32 116,-31 157,3 61,52 69,105 47,305 -19,167 8,261 100,353 46,45 48,47 95,41 26,-3 71,-18 100,-33 z"
       id="path1"
       style="fill:#3b2b24;fill-opacity:1;stroke:#3b2b24;stroke-width:48.189;stroke-dasharray:none;stroke-opacity:1"
       sodipodi:nodetypes="cccscccccscccssccccsccccccscccccccccccscccccccccccccccccscccccccccccccccccccccscccccccccccsccccccscccccccccccccsccccccc" /></g></svg>
