<?xml version="1.0" encoding="UTF-8" standalone="no"?>
<!-- Created with Inkscape (http://www.inkscape.org/) -->

<svg
   width="165.60971mm"
   height="165.80151mm"
   viewBox="0 0 165.60972 165.80151"
   version="1.1"
   id="svg1"
   xml:space="preserve"
   inkscape:export-filename="bitmap.png"
   inkscape:export-xdpi="96"
   inkscape:export-ydpi="96"
   xmlns:inkscape="http://www.inkscape.org/namespaces/inkscape"
   xmlns:sodipodi="http://sodipodi.sourceforge.net/DTD/sodipodi-0.dtd"
   xmlns="http://www.w3.org/2000/svg"
   xmlns:svg="http://www.w3.org/2000/svg"><sodipodi:namedview
     id="namedview1"
     pagecolor="#ffffff"
     bordercolor="#000000"
     borderopacity="0.25"
     inkscape:showpageshadow="2"
     inkscape:pageopacity="0.0"
     inkscape:pagecheckerboard="0"
     inkscape:deskcolor="#d1d1d1"
     inkscape:document-units="mm"
     showgrid="false"><inkscape:page
       x="0"
       y="0"
       width="165.60973"
       height="165.80151"
       id="page5"
       margin="0"
       bleed="0" /></sodipodi:namedview><defs
     id="defs1" /><g
     transform="matrix(0.03527778,0,0,-0.03527778,-7.4277728,173.18381)"
     fill="#000000"
     stroke="none"
     id="g5"
     style="fill:#3b2b24;fill-opacity:1"><path
       d="m 1534,4891 c -126,-46 -223,-140 -295,-286 -76,-155 -94,-236 -93,-440 0,-150 3,-182 26,-275 74,-294 230,-516 432,-615 98,-49 175,-62 272,-47 432,67 616,740 348,1274 -84,169 -202,292 -344,361 -81,40 -90,42 -190,44 -82,2 -116,-1 -156,-16 z m 297,-118 c 134,-63 227,-164 310,-338 28,-58 60,-146 76,-210 24,-97 27,-128 27,-260 -1,-175 -19,-260 -84,-391 -30,-61 -56,-96 -104,-142 -87,-81 -151,-105 -261,-100 -113,6 -195,47 -295,148 -373,377 -331,1168 70,1314 71,26 181,17 261,-21 z"
       id="path1"
       style="fill:#3b2b24;fill-opacity:1" /><path
       d="m 3314,4896 c -74,-23 -165,-79 -235,-144 -367,-340 -417,-1059 -95,-1387 109,-111 259,-163 398,-137 338,62 616,517 595,972 -6,128 -17,190 -53,300 -61,188 -183,331 -331,387 -68,25 -211,30 -279,9 z m 271,-116 c 75,-36 165,-131 208,-220 162,-337 82,-820 -178,-1084 -48,-48 -93,-82 -140,-106 -66,-33 -76,-35 -170,-35 -90,0 -105,3 -152,27 -80,43 -148,119 -198,223 -53,110 -74,194 -82,324 -21,342 138,705 367,839 115,68 243,80 345,32 z"
       id="path2"
       style="fill:#3b2b24;fill-opacity:1" /><path
       d="m 533,3395 c -150,-46 -269,-195 -309,-385 -24,-115 -15,-327 20,-445 72,-243 216,-434 390,-519 139,-67 245,-70 366,-10 235,118 333,479 223,828 -83,265 -263,468 -472,532 -55,17 -163,17 -218,-1 z m 203,-102 c 95,-32 212,-126 280,-227 44,-64 101,-196 125,-286 27,-102 32,-283 10,-370 -75,-302 -326,-402 -552,-220 -118,95 -211,242 -259,410 -31,107 -39,311 -15,400 61,234 229,354 411,293 z"
       id="path3"
       style="fill:#3b2b24;fill-opacity:1" /><path
       d="m 4385,3403 c -225,-61 -422,-289 -501,-578 -24,-87 -27,-119 -28,-245 0,-164 13,-228 69,-339 49,-99 113,-164 203,-208 70,-35 83,-38 157,-37 259,2 494,235 597,590 20,69 23,101 23,244 -1,152 -3,172 -28,246 -48,145 -133,249 -247,302 -43,20 -73,26 -140,28 -47,2 -94,0 -105,-3 z m 189,-114 c 156,-58 245,-248 233,-498 -6,-140 -30,-230 -95,-361 -38,-78 -61,-110 -132,-181 -106,-107 -172,-142 -278,-148 -66,-3 -79,0 -137,28 -73,36 -112,78 -156,167 -121,245 -38,655 177,868 131,130 262,173 388,125 z"
       id="path4"
       style="fill:#3b2b24;fill-opacity:1" /><path
       d="m 2400,3194 c -243,-52 -458,-217 -574,-443 -24,-47 -60,-138 -80,-201 -43,-138 -97,-253 -158,-335 -25,-33 -146,-169 -269,-302 -242,-261 -296,-335 -350,-484 -125,-344 -40,-740 213,-986 230,-224 526,-290 828,-185 116,41 223,108 328,207 90,84 134,105 219,105 90,-1 133,-21 230,-111 142,-132 293,-213 448,-240 106,-18 294,-7 380,24 227,79 401,238 504,458 64,137 85,231 85,394 1,154 -14,236 -63,360 -60,148 -90,189 -356,475 -105,113 -212,231 -237,262 -63,77 -129,213 -173,355 -59,187 -126,305 -242,420 -194,195 -477,282 -733,227 z m 365,-118 c 188,-60 355,-206 449,-393 14,-29 45,-110 67,-180 46,-143 96,-248 161,-339 23,-34 142,-168 263,-299 241,-260 270,-296 321,-401 56,-117 78,-219 77,-369 0,-112 -4,-142 -27,-220 -70,-232 -206,-400 -399,-495 -139,-69 -308,-88 -460,-54 -136,31 -228,85 -355,206 -114,109 -185,142 -302,142 -114,0 -183,-32 -302,-140 -134,-123 -237,-177 -398,-210 -195,-39 -391,12 -556,144 -271,219 -365,626 -223,968 45,108 94,170 329,425 118,127 236,261 263,297 64,88 121,205 158,326 66,213 122,310 248,428 104,98 219,158 362,188 76,16 235,4 324,-24 z"
       id="path5"
       style="fill:#3b2b24;fill-opacity:1" /></g></svg>
